inDegrees=no
num_controls=7
num_derivatives=13
num_iterations=150
num_multipliers=7
num_parameters=0
num_slacks=7
num_states=26
objective=5.579628
objective_accelerations=0.604794
objective_balance=0.105689
objective_effort=0.446951
objective_height=4.360628
objective_ligament=0.061565
solver_duration=1754.846065
status=Solve_Succeeded
success=true
DataType=double
version=3
OpenSimVersion=4.4-2022-07-23-0e9fedc
endheader
time	/jointset/ground_pelvis/pelvis_tilt/value	/jointset/ground_pelvis/pelvis_tx/value	/jointset/ground_pelvis/pelvis_ty/value	/jointset/hip_l/hip_flexion_l/value	/jointset/hip_l/hip_adduction_l/value	/jointset/hip_l/hip_rotation_l/value	/jointset/back/lumbar_extension/value	/jointset/patellofemoral_l/patellar_flexion_l/value	/jointset/knee_l/knee_flexion_l/value	/jointset/knee_l/knee_adduction_l/value	/jointset/knee_l/knee_rotation_l/value	/jointset/ankle_l/ankle_angle_l/value	/jointset/subtalar_l/subtalar_angle_l/value	/jointset/ground_pelvis/pelvis_tilt/speed	/jointset/ground_pelvis/pelvis_tx/speed	/jointset/ground_pelvis/pelvis_ty/speed	/jointset/hip_l/hip_flexion_l/speed	/jointset/hip_l/hip_adduction_l/speed	/jointset/hip_l/hip_rotation_l/speed	/jointset/back/lumbar_extension/speed	/jointset/patellofemoral_l/patellar_flexion_l/speed	/jointset/knee_l/knee_flexion_l/speed	/jointset/knee_l/knee_adduction_l/speed	/jointset/knee_l/knee_rotation_l/speed	/jointset/ankle_l/ankle_angle_l/speed	/jointset/subtalar_l/subtalar_angle_l/speed	/forceset/tau_hip_flexion_l	/forceset/tau_hip_adduction_l	/forceset/tau_hip_rotation_l	/forceset/tau_knee_flexion_l	/forceset/tau_ankle_angle_l	/forceset/tau_subtalar_angle_l	/forceset/tau_lumbar_extension	lambda_cid13_p0	lambda_cid13_p1	lambda_cid13_p2	lambda_cid13_p3	lambda_cid13_p4	lambda_cid13_p5	lambda_cid14_p0	/jointset/ground_pelvis/pelvis_tilt/accel	/jointset/ground_pelvis/pelvis_tx/accel	/jointset/ground_pelvis/pelvis_ty/accel	/jointset/hip_l/hip_flexion_l/accel	/jointset/hip_l/hip_adduction_l/accel	/jointset/hip_l/hip_rotation_l/accel	/jointset/back/lumbar_extension/accel	/jointset/patellofemoral_l/patellar_flexion_l/accel	/jointset/knee_l/knee_flexion_l/accel	/jointset/knee_l/knee_adduction_l/accel	/jointset/knee_l/knee_rotation_l/accel	/jointset/ankle_l/ankle_angle_l/accel	/jointset/subtalar_l/subtalar_angle_l/accel	gamma_cid13_p0	gamma_cid13_p1	gamma_cid13_p2	gamma_cid13_p3	gamma_cid13_p4	gamma_cid13_p5	gamma_cid14_p0
1.5	-0.4680175326573794	-0.07424984797029732	0.7641835594358524	1.273695605367421	-0.3098760149885114	-0.05391097154042657	-0.3453054455436961	0.6680411946233532	0.6680411946233322	-0.1736860833583841	0.1745021995409528	0.02669272589409553	-0.05102584512442451	0.7889678113654386	0.2651071384053836	0.4789392140777273	-2.352212248526751	0.03801691985749259	-0.5889675732483199	0.5653370655204676	-1.690330047738866	-1.690330047738838	0.004859822964158629	-0.0001249210880062609	-0.215655281545705	0.01519318758717475	-0.2616726328457071	0.01950311472994844	-0.0190994381316132	-0.1844873333435057	0.1282639037977961	0.04741874441111803	0.2317828261848424	2.345965533396843	-23.74110555693578	6.508170464091365	-4.236255351735939	-611.1815098050848	-60.72283509427153	-29.50020226245124	0.6396625190477018	0.6691184759908021	-0.2667909573277959	-1.567009459695689	0.5521607567828976	-0.2823076615557564	1.762607740876308	-1.064591891199936	-1.064591891199888	0.02003639067206897	-0.0286111735604407	-0.07497388732992824	0.5378078867450521	1.190499289286892e-07	9.604509794925036e-07	-6.293888991583378e-07	6.974867290244312e-08	2.427958668076668e-07	2.392381317229637e-08	2.140378496170944e-07
1.51	-0.4600962815683247	-0.07156552885457472	0.7689586989991862	1.250097347907275	-0.3094691844556549	-0.05981496518585904	-0.3395654078195949	0.651086955942599	0.6510869559425838	-0.173637990632077	0.1745011886549764	0.02453259007225998	-0.0508480298218544	0.7951729307412572	0.2717267953073483	0.4759931848737786	-2.367113202251995	0.04335576693785041	-0.5917441917079073	0.5825943604843463	-1.700277837037553	-1.700277837037578	0.004747569722520734	-8.311992088156075e-05	-0.2163254046097193	0.0203780156954942	-0.2532578110389971	0.01862617442754447	-0.01901923468202696	-0.1835687265597962	0.1286294917636245	0.04668271827256444	0.2253415863224238	2.699198113607557	-23.58898070210391	6.604632750846434	-4.242354936276366	-606.7101190167531	-61.04746525765529	-30.44391567960319	0.594529701620666	0.6539338110666603	-0.3227915940477601	-1.402714157240939	0.5256236927623332	-0.2621003883718594	1.695872551611162	-0.9239320346718157	-0.9239320346798887	-0.02833751027454892	0.01981831797610844	-0.05604689405927059	0.5098949335491876	7.405758539187531e-08	1.098081515763614e-06	-4.241670032691954e-07	1.158768723190351e-07	2.289552504611417e-07	6.164072942808166e-08	1.958348436863371e-07
1.52	-0.4521162606745652	-0.06881590426707944	0.773701521732057	1.226359865744209	-0.3090087900501738	-0.0657440773059299	-0.3336550807103627	0.6340404274517643	0.6340404274517597	-0.1735913167039242	0.1745004442918909	0.02236714994415985	-0.05061815130606639	0.8007217723079674	0.278168232759915	0.4724758479850854	-2.380057189109329	0.04872969438221592	-0.5939912681759614	0.5993949425469439	-1.708788009754989	-1.708788009755068	0.004576063333178329	-7.161650867152749e-05	-0.2167161427986128	0.02560583023077143	-0.2448429892322868	0.01774923412514056	-0.01893903123246081	-0.1826501197760798	0.1289950797294558	0.04594669213401128	0.2189003464600032	3.045116036117077	-23.43793706494064	6.703965465975243	-4.235142478400407	-602.3560114672216	-61.42603136752692	-31.36775460959652	0.5084069572257666	0.6334745861114005	-0.3810524942766588	-1.175616086113845	0.5591768295844082	-0.1763992632491148	1.671265160619966	-0.7770685749498384	-0.7770685749498376	0.008185761131097431	-0.03467072454332745	-0.01909691230548463	0.5464051721366284	4.683034736360995e-08	1.197403353403575e-06	-3.121173606285699e-07	1.444884631385798e-07	2.249111180632223e-07	9.120084919387315e-08	1.873021729310238e-07
1.53	-0.4440840349198152	-0.0660028112588017	0.7784063657798098	1.202502724370796	-0.3084945397536984	-0.07169325336712942	-0.3275791742249219	0.6169160462586025	0.616916046258603	-0.1735465897383835	0.1744998555253374	0.0201992185419044	-0.05033582968659536	0.8056087980445069	0.2844141747050108	0.4684019612935428	-2.391035550900209	0.05412306649819693	-0.5957624013501138	0.6156998752740142	-1.715840808191094	-1.715840808191091	0.004364612622481	-4.742925119352039e-05	-0.2168211301650681	0.03086340210940598	-0.2363710238560149	0.01669616680644462	-0.01890109095083265	-0.1817830989495315	0.1294689755053323	0.04509139070920717	0.2123759630284532	3.419006266438299	-23.2416244610363	6.797947982623378	-4.229509388007904	-598.0575938753946	-61.74229584300609	-32.26769312729132	0.4616756087077993	0.6147568391651794	-0.434159860640746	-1.008600095583694	0.5296911464890347	-0.1650389283202244	1.597135438445933	-0.6323103706212956	-0.6323103706088976	-0.03630675461288473	0.0208926145538148	0.001164171822227758	0.5160012826171505	3.847853393817716e-08	1.256022198747941e-06	-2.990632370644926e-07	1.544886573237619e-07	2.312757498606964e-07	1.120943726890463e-07	1.890442332996195e-07
